HIERARCHY
ROOT Hips
{
	OFFSET 0.000000 88.474243 0.000000
	CHANNELS 6 Xposition Yposition Zposition Zrotation Yrotation Xrotation 
	JOINT Hips_Spine
	{
		OFFSET 0.000000 0.000000 0.000000
		CHANNELS 3 Zrotation Yrotation Xrotation
		JOINT Spine
		{
			OFFSET 0.005100 8.711998 -0.691000
			CHANNELS 3 Zrotation Yrotation Xrotation
			JOINT Spine1
			{
				OFFSET -0.009200 8.660301 -1.275000
				CHANNELS 3 Zrotation Yrotation Xrotation
				JOINT Spine2
				{
					OFFSET 0.006300 9.852501 -1.857000
					CHANNELS 3 Zrotation Yrotation Xrotation
					JOINT Spine2_Neck
					{
						OFFSET 0.000000 0.000000 0.000000
						CHANNELS 3 Zrotation Yrotation Xrotation
						JOINT Neck
						{
							OFFSET 0.016300 11.420799 -0.263300
							CHANNELS 3 Zrotation Yrotation Xrotation
							End Site #name: Head
							{
								OFFSET -0.019200 9.262405 2.362500
							}
						}
					}
					JOINT Spine2_LeftShoulder
					{
						OFFSET 0.000000 0.000000 0.000000
						CHANNELS 3 Zrotation Yrotation Xrotation
						JOINT LeftShoulder
						{
							OFFSET 5.616900 6.732201 -0.345700
							CHANNELS 3 Zrotation Yrotation Xrotation
							JOINT LeftArm
							{
								OFFSET 10.664888 -0.183372 -2.440700
								CHANNELS 3 Zrotation Yrotation Xrotation
								JOINT LeftForeArm
								{
									OFFSET 27.459126 0.000000 0.000000
									CHANNELS 3 Zrotation Yrotation Xrotation
									End Site #name: LeftHand
									{
										OFFSET 21.306858 0.000000 0.000000
									}
								}
							}
						}
					}
					JOINT Spine2_RightShoulder
					{
						OFFSET 0.000000 0.000000 0.000000
						CHANNELS 3 Zrotation Yrotation Xrotation
						JOINT RightShoulder
						{
							OFFSET -5.580300 6.737503 -0.344400
							CHANNELS 3 Zrotation Yrotation Xrotation
							JOINT RightArm
							{
								OFFSET -10.679335 -0.188484 -2.383900
								CHANNELS 3 Zrotation Yrotation Xrotation
								JOINT RightForeArm
								{
									OFFSET -27.503529 0.000000 0.000000
									CHANNELS 3 Zrotation Yrotation Xrotation
									End Site #name: RightHand
									{
										OFFSET -21.306808 0.000000 0.000000
									}
								}
							}
						}
					}
				}
			}
		}
	}
	JOINT Hips_LeftUpLeg
	{
		OFFSET 0.000000 0.000000 0.000000
		CHANNELS 3 Zrotation Yrotation Xrotation
		JOINT LeftUpLeg
		{
			OFFSET 6.857700 -6.739601 0.312100
			CHANNELS 3 Zrotation Yrotation Xrotation
			JOINT LeftLeg
			{
				OFFSET -0.367590 -34.731552 -4.572400
				CHANNELS 3 Zrotation Yrotation Xrotation
				End Site #name: LeftFoot
				{
					OFFSET 0.367590 -34.656704 -6.067400
				}
			}
		}
	}
	JOINT Hips_RightUpLeg
	{
		OFFSET 0.000000 0.000000 0.000000
		CHANNELS 3 Zrotation Yrotation Xrotation
		JOINT RightUpLeg
		{
			OFFSET -6.876100 -6.733299 0.301000
			CHANNELS 3 Zrotation Yrotation Xrotation
			JOINT RightLeg
			{
				OFFSET 0.347353 -34.795158 -4.515900
				CHANNELS 3 Zrotation Yrotation Xrotation
				End Site #name: RightFoot
				{
					OFFSET -0.347353 -34.589367 -6.070300
				}
			}
		}
	}
}
MOTION
Frames: 15
Frame Time: 0.041667
-0.064164 0.160564 -0.123090 -2.904520 -3.482767 -7.578363 0.000000 0.000000 0.000000 1.914421 0.892920 8.689812 1.122697 0.319044 4.060296 0.000000 0.000000 0.000000 1.340354 0.636407 2.500725 2.210420 -2.871931 4.225063 0.327038 0.160336 5.579629 -10.240263 -10.470869 2.250912 -56.045617 -21.454164 11.656485 -1.786864 -53.676326 2.561338 1.018932 -0.229322 4.715596 7.869387 3.372156 2.217531 66.084779 34.977370 24.096052 -1.290283 46.191866 2.512196 -0.000000 0.000000 0.000000 9.460684 5.578459 -68.364536 4.394688 -4.016960 65.969526 0.000000 -0.000000 -0.000000 0.589521 -5.338348 -64.148460 2.065928 5.634123 60.539777 
-0.095032 0.085212 -0.170391 -3.017942 -2.071968 -8.636680 0.000000 0.000000 0.000000 2.284320 1.112613 11.477192 1.189935 0.395777 3.681414 0.000000 0.000000 0.000000 1.450480 0.407705 3.300521 -0.759382 -1.673364 1.997096 0.811062 0.404466 5.789955 -11.538119 -10.885808 2.578254 -56.509619 -24.480646 12.184199 -4.501065 -58.695412 4.843429 1.474159 0.241804 5.292520 10.132088 0.363738 3.256285 69.180170 34.250058 28.784127 0.178580 38.455649 2.100809 -0.000000 0.000000 0.000000 8.816819 6.488349 -71.146495 4.492450 -2.106434 68.248132 0.000000 -0.000000 -0.000000 0.796570 -5.749015 -66.600228 0.708197 1.270348 62.363690 
-0.173585 0.175754 -0.204180 -3.477425 -1.915460 -10.114160 0.000000 0.000000 0.000000 3.202893 0.509198 12.804615 1.312117 0.270314 3.857791 0.000000 0.000000 0.000000 1.681889 0.369583 3.965960 -1.279741 -0.492167 2.725971 0.940628 0.096880 5.638179 -12.702487 -10.599020 2.561480 -57.331478 -24.651982 14.443509 -5.027374 -61.376506 5.340209 1.550114 0.026023 5.682054 10.338825 0.370854 1.888729 69.572157 34.675168 28.166563 0.646834 39.633128 2.617356 -0.000000 0.000000 -0.000000 8.055039 7.960913 -70.799070 3.646878 -1.587754 67.267698 -0.000000 -0.000000 -0.000000 0.124891 -7.487816 -68.127499 0.558379 0.573479 64.285484 
-0.247662 0.251030 -0.251607 -3.298612 -2.360526 -10.802245 0.000000 0.000000 0.000000 3.402592 0.534343 13.098687 1.353348 0.093504 4.024293 0.000000 0.000000 0.000000 1.733645 0.331981 4.614834 -0.102447 0.043448 5.322249 1.138503 -0.110746 5.612686 -13.513700 -10.178103 2.423188 -56.987490 -25.025641 15.640466 -5.039166 -61.275035 5.177754 1.591696 -0.123917 5.806934 10.337320 0.350418 1.570593 66.997237 37.344782 27.082142 0.972351 42.242783 3.016048 -0.000000 0.000000 -0.000000 8.150518 8.689698 -68.137506 3.045938 -0.802755 65.087538 -0.000000 -0.000000 -0.000000 0.615825 -8.708985 -68.894406 0.379576 0.275235 65.927426 
-0.273954 0.293418 -0.317618 -3.305015 -2.538386 -10.861405 0.000000 0.000000 0.000000 3.620742 0.493022 13.369822 1.389328 -0.053586 4.193207 0.000000 0.000000 0.000000 1.813062 0.201992 5.116451 0.800687 0.174213 7.170894 1.321985 -0.213474 5.510905 -14.177330 -9.468924 2.242468 -56.851379 -24.586595 16.546799 -4.976844 -61.085316 5.081954 1.643120 -0.255546 5.801474 10.658300 -0.230256 1.383975 64.632050 38.831073 26.604881 1.096571 43.706025 3.031281 -0.000000 0.000000 -0.000000 8.782207 8.339897 -66.176756 2.296718 -0.762370 62.356990 -0.000000 -0.000000 -0.000000 1.084153 -8.854914 -68.208194 0.248629 0.011738 65.140626 
-0.271774 0.306627 -0.399208 -3.429641 -2.686902 -10.445266 0.000000 0.000000 0.000000 3.792913 0.436847 13.449981 1.414173 -0.163098 4.310109 0.000000 0.000000 0.000000 1.890579 0.117764 5.312330 1.381744 0.218176 8.105551 1.447476 -0.305701 5.451252 -14.523511 -8.978914 2.121140 -56.882051 -23.930309 17.213235 -4.888832 -60.949839 4.992162 1.676495 -0.323800 5.771829 10.995277 -0.654093 1.303023 63.462883 39.192885 27.267859 1.011200 43.664067 2.833102 -0.000000 0.000000 -0.000000 9.151492 7.832400 -65.415287 2.016028 -0.996949 60.351229 -0.000000 -0.000000 -0.000000 1.298003 -8.093046 -67.167681 0.241676 -0.144839 63.601690 
-0.259193 0.310180 -0.481522 -3.502248 -2.782165 -9.878554 0.000000 0.000000 0.000000 3.845992 0.370016 13.509721 1.436803 -0.246354 4.352637 0.000000 0.000000 0.000000 1.946198 0.054491 5.302252 1.728044 0.194050 8.480503 1.517409 -0.380887 5.416131 -14.683914 -8.644379 2.045067 -57.044847 -23.402460 17.637453 -4.819075 -60.878146 4.909690 1.700249 -0.353702 5.752645 11.372112 -0.833432 1.280388 63.031433 38.987670 28.122488 0.849640 42.894286 2.578343 -0.000000 0.000000 -0.000000 9.348952 7.380688 -65.352986 1.924515 -1.447151 59.303396 -0.000000 -0.000000 -0.000000 1.682236 -7.504535 -66.873847 0.314922 -0.202603 62.290241 
-0.250119 0.320293 -0.555809 -3.533188 -2.736588 -9.383106 0.000000 0.000000 0.000000 3.822990 0.309971 13.500635 1.458176 -0.301968 4.341505 0.000000 0.000000 0.000000 1.997218 0.044604 5.168893 1.942089 0.215005 8.517065 1.553928 -0.455231 5.357252 -14.756875 -8.495877 1.983458 -57.235785 -23.041976 17.767037 -4.708969 -60.780734 4.774018 1.712852 -0.376777 5.718572 11.714977 -1.013695 1.256110 62.933918 38.624106 28.821396 0.684597 41.880566 2.368661 -0.000000 0.000000 -0.000000 9.388028 7.144052 -65.562163 1.711919 -1.974360 58.953836 -0.000000 -0.000000 -0.000000 2.056966 -7.227702 -67.275386 0.377483 -0.207559 61.714034 
-0.253172 0.342904 -0.624135 -3.523380 -2.601899 -8.988290 0.000000 0.000000 0.000000 3.769805 0.246624 13.420860 1.489504 -0.351031 4.293476 0.000000 0.000000 0.000000 2.045992 0.073739 4.940629 2.064522 0.276832 8.352771 1.567870 -0.535296 5.278155 -14.809372 -8.538974 1.940489 -57.424980 -22.788851 17.767173 -4.560392 -60.643575 4.569785 1.722644 -0.398962 5.683001 11.928868 -1.130435 1.248460 62.890569 38.167372 29.253404 0.553868 40.958939 2.214244 -0.000000 0.000000 -0.000000 9.379675 6.993527 -65.831159 1.412091 -2.491462 59.056366 -0.000000 -0.000000 -0.000000 2.321836 -7.157495 -67.736464 0.422973 -0.173755 61.753533 
-0.263339 0.370227 -0.686117 -3.449303 -2.577682 -8.870574 0.000000 0.000000 0.000000 3.690761 0.205094 13.325807 1.521264 -0.386343 4.246689 0.000000 0.000000 0.000000 2.077411 0.093713 4.734155 2.148646 0.286440 8.194976 1.577933 -0.597337 5.202412 -14.833907 -8.639171 1.911553 -57.515939 -22.443021 17.667949 -4.391668 -60.338707 4.364809 1.736229 -0.412184 5.646007 12.054210 -1.143350 1.243379 62.929987 37.825128 29.532445 0.468660 40.258694 2.104860 -0.000000 0.000000 -0.000000 9.307624 6.867193 -66.056451 1.196384 -2.882611 59.380303 -0.000000 -0.000000 -0.000000 2.470260 -7.253705 -68.034223 0.445889 -0.132815 62.051895 
-0.277307 0.395614 -0.740010 -3.369655 -2.632364 -8.910923 0.000000 0.000000 0.000000 3.612792 0.171516 13.246970 1.551962 -0.413382 4.213901 0.000000 0.000000 0.000000 2.093717 0.100594 4.563739 2.210444 0.250393 8.046905 1.584772 -0.642107 5.137555 -14.852782 -8.737390 1.883151 -57.526477 -22.086050 17.476963 -4.215949 -59.904707 4.165389 1.751866 -0.420027 5.616561 12.076426 -1.028026 1.248370 63.026142 37.585748 29.689129 0.421166 39.766177 2.025554 -0.000000 0.000000 -0.000000 9.182205 6.763649 -66.294002 1.083323 -3.163862 59.833537 -0.000000 -0.000000 -0.000000 2.527567 -7.421641 -68.154089 0.442012 -0.088596 62.463253 
-0.293377 0.415891 -0.780425 -3.322999 -2.762140 -9.029380 0.000000 0.000000 0.000000 3.560583 0.133027 13.152152 1.580111 -0.433459 4.194533 0.000000 0.000000 0.000000 2.097874 0.092672 4.437212 2.247190 0.177991 7.901610 1.592609 -0.676689 5.087380 -14.844579 -8.823429 1.852649 -57.466712 -21.797179 17.184421 -4.058289 -59.504876 3.987234 1.770151 -0.421195 5.599849 12.029934 -0.786815 1.266886 63.111801 37.411254 29.770642 0.404004 39.422587 1.966677 -0.000000 0.000000 -0.000000 9.035722 6.657236 -66.510830 0.972984 -3.355839 60.307590 -0.000000 -0.000000 -0.000000 2.577010 -7.567176 -68.177847 0.406379 -0.041991 62.858831 
-0.307153 0.429629 -0.802148 -3.338413 -3.007240 -9.160218 0.000000 0.000000 0.000000 3.526717 0.098207 13.049655 1.605900 -0.448846 4.190991 0.000000 0.000000 0.000000 2.088641 0.067941 4.356031 2.260789 0.074357 7.775269 1.600378 -0.704749 5.050806 -14.824007 -8.897150 1.817755 -57.348547 -21.612427 16.809604 -3.919478 -59.175607 3.829607 1.791217 -0.417631 5.596225 11.933366 -0.435778 1.297297 63.207957 37.280256 29.805022 0.413905 39.238503 1.923651 -0.000000 0.000000 -0.000000 8.906367 6.619568 -66.684881 0.953155 -3.415343 60.769084 -0.000000 -0.000000 -0.000000 2.613946 -7.684355 -68.163910 0.363627 0.017867 63.249838 
-0.318905 0.435800 -0.811388 -3.369212 -3.227941 -9.225953 0.000000 0.000000 0.000000 3.501235 0.050783 12.941947 1.624377 -0.464979 4.208640 0.000000 0.000000 0.000000 2.078983 0.045662 4.318972 2.277241 -0.002313 7.678674 1.605866 -0.716794 5.026440 -14.807017 -8.923678 1.773744 -57.228020 -21.503213 16.379855 -3.806687 -58.922157 3.691124 1.811447 -0.425411 5.609155 11.788072 -0.057773 1.332950 63.275633 37.131123 29.686346 0.445923 39.108501 1.896124 -0.000000 0.000000 -0.000000 8.828309 6.596945 -66.787668 0.985129 -3.391889 61.163060 0.000000 -0.000000 -0.000000 2.637621 -7.775347 -68.145124 0.301612 0.055771 63.649418 
-0.331471 0.433179 -0.813698 -3.402408 -3.420012 -9.221251 0.000000 -0.000000 0.000000 3.481042 -0.013773 12.851651 1.638297 -0.483810 4.246798 0.000000 0.000000 0.000000 2.066026 0.027764 4.326234 2.302827 -0.054087 7.627700 1.609406 -0.711303 5.012807 -14.804370 -8.905676 1.716854 -57.101305 -21.460408 15.885865 -3.703893 -58.673833 3.553723 1.832366 -0.443728 5.634788 11.610609 0.344853 1.373735 63.300792 36.981479 29.447610 0.494346 38.989621 1.877475 0.000000 0.000000 -0.000000 8.778644 6.595016 -66.764680 1.028514 -3.328811 61.445914 0.000000 -0.000000 -0.000000 2.597188 -7.775145 -68.064569 0.245621 0.075833 63.935153 
